<svg xmlns="http://www.w3.org/2000/svg" viewBox="0 0 200 200" width="200" height="200">
  <defs>
    <radialGradient id="bg" cx="50%" cy="50%" r="50%">
      <stop offset="0%" stop-color="#5C3A1E"/>
      <stop offset="100%" stop-color="#3E2723"/>
    </radialGradient>
  </defs>
  <!-- Background circle -->
  <circle cx="100" cy="100" r="96" fill="url(#bg)" stroke="#D2B48C" stroke-width="4"/>
  <!-- Maze path hints -->
  <rect x="40" y="40" width="120" height="120" rx="6" fill="none" stroke="#D2B48C" stroke-width="3" opacity="0.3"/>
  <line x1="80" y1="40" x2="80" y2="100" stroke="#D2B48C" stroke-width="3" opacity="0.3"/>
  <line x1="120" y1="100" x2="120" y2="160" stroke="#D2B48C" stroke-width="3" opacity="0.3"/>
  <line x1="40" y1="100" x2="120" y2="100" stroke="#D2B48C" stroke-width="3" opacity="0.3"/>
  <!-- Ant body -->
  <ellipse cx="88" cy="108" rx="14" ry="11" fill="#1A1A1A"/>
  <ellipse cx="105" cy="104" rx="9" ry="7" fill="#1A1A1A"/>
  <ellipse cx="117" cy="100" rx="7" ry="6" fill="#1A1A1A"/>
  <!-- Antennae -->
  <path d="M122 96 Q130 82 136 78" fill="none" stroke="#1A1A1A" stroke-width="2.5" stroke-linecap="round"/>
  <path d="M122 104 Q130 118 136 122" fill="none" stroke="#1A1A1A" stroke-width="2.5" stroke-linecap="round"/>
  <!-- Legs -->
  <line x1="92" y1="98" x2="82" y2="82" stroke="#1A1A1A" stroke-width="2" stroke-linecap="round"/>
  <line x1="92" y1="118" x2="82" y2="134" stroke="#1A1A1A" stroke-width="2" stroke-linecap="round"/>
  <line x1="102" y1="96" x2="98" y2="80" stroke="#1A1A1A" stroke-width="2" stroke-linecap="round"/>
  <line x1="102" y1="112" x2="98" y2="128" stroke="#1A1A1A" stroke-width="2" stroke-linecap="round"/>
  <line x1="112" y1="96" x2="116" y2="82" stroke="#1A1A1A" stroke-width="2" stroke-linecap="round"/>
  <line x1="112" y1="110" x2="116" y2="124" stroke="#1A1A1A" stroke-width="2" stroke-linecap="round"/>
  <!-- Goal marker -->
  <circle cx="148" cy="148" r="8" fill="#4CAF50" opacity="0.8"/>
</svg>
